<?xml version="1.0" standalone="no"?>
<!DOCTYPE svg PUBLIC "-//W3C//DTD SVG 20010904//EN"
 "http://www.w3.org/TR/2001/REC-SVG-20010904/DTD/svg10.dtd">
<svg version="1.0" xmlns="http://www.w3.org/2000/svg"
 width="297.000000pt" height="297.000000pt" viewBox="0 0 297.000000 297.000000"
 preserveAspectRatio="xMidYMid meet">
<metadata>
Created by potrace 1.11, written by Peter Selinger 2001-2013
</metadata>
<g transform="translate(0.000000,297.000000) scale(0.100000,-0.100000)"
fill="#000000" stroke="none">
<path d="M1319 2966 c-2 -2 -26 -6 -54 -10 -206 -25 -417 -106 -610 -234 -109
-72 -147 -104 -244 -205 -212 -219 -344 -487 -396 -802 -20 -119 -13 -384 13
-510 52 -246 156 -461 317 -655 208 -249 519 -435 830 -496 11 -2 31 -6 45 -9
45 -10 174 -19 260 -19 219 1 424 47 625 143 83 39 235 129 255 151 3 3 34 30
70 60 258 219 428 516 495 869 32 167 24 398 -19 586 -135 581 -620 1030
-1211 1119 -78 12 -366 21 -376 12z m-117 -679 c61 -26 96 -67 183 -218 l87
-150 86 148 c88 154 110 180 176 215 81 42 213 20 275 -46 17 -18 241 -392
241 -403 0 -2 11 -20 23 -41 13 -20 35 -57 49 -82 14 -25 76 -133 138 -240 61
-107 116 -206 122 -220 5 -14 10 -50 10 -81 1 -99 -53 -178 -152 -222 -44 -20
-67 -20 -970 -20 -913 0 -926 0 -970 21 -79 36 -134 106 -147 187 -13 81 0
108 280 594 150 259 285 485 301 501 67 72 177 95 268 57z"/>
<path d="M1045 2161 c-20 -14 -90 -125 -228 -363 -109 -189 -209 -361 -221
-383 -12 -22 -41 -72 -64 -111 -23 -39 -47 -85 -52 -103 -15 -52 15 -115 65
-136 11 -5 142 -10 291 -11 l271 -2 -15 42 c-9 26 -12 62 -9 99 5 50 18 80
109 239 56 99 114 199 126 222 13 22 37 63 53 89 l30 49 -96 168 c-53 92 -107
178 -120 190 -34 32 -101 37 -140 11z"/>
<path d="M1776 2163 c-18 -12 -63 -77 -127 -188 -54 -93 -99 -174 -99 -180 0
-5 59 -111 131 -235 71 -124 141 -248 154 -276 31 -63 37 -127 19 -179 -7 -22
-14 -43 -14 -46 0 -3 123 -5 273 -5 302 1 309 2 343 68 24 47 13 84 -66 220
-39 68 -75 130 -80 138 -4 8 -27 46 -49 83 -23 38 -41 71 -41 74 0 3 -29 53
-63 112 -62 104 -110 186 -132 226 -35 66 -99 165 -115 180 -29 26 -99 30
-134 8z"/>
<path d="M1390 1528 c-41 -72 -87 -152 -102 -177 -87 -145 -98 -190 -61 -248
30 -45 63 -51 255 -50 162 2 179 4 205 23 35 26 53 60 53 99 0 21 -41 101
-130 255 -71 124 -133 226 -137 227 -5 2 -42 -56 -83 -129z"/>
</g>
</svg>
